:SAMPLES-PER-SECOND 30
:FULLY-SPECIFIED
:DEGREES
1059
root  -24.6052 38.5377 -4.12533 179.311 -78.9283 173.241
RightUpLeg  -17.6616 3.98515 2.81755
RightLeg  17.5003 2.42994 0.557667
RightFoot  4.95535 0.555666 -3.6096
RightToes  -1.74624e-010 0 -3.6325e-017
Spine  3.99676 -7.99096 -6.21363
Spine1  3.62718 -8.26118 -0.798403
HEad  -11.1938 -50.3163 4.12969
LeftShoulder1  0.467066 2.03471 -25.591
LeftArm  0.159865 3.75546 -43.889
LeftForeArm  35.7589 -37.2441 -6.3472
LeftHand  -0.0316176 4.66031 1.18134
RightShoulder  0.13407 -7.12672 -13.7196
RightArm  -49.6711 12.7821 -18.5163
RightForeArm  98.6416 80.6065 83.4649
RightHand  -1.31394 10.063 -10.1937
LeftUpLeg  16.6538 9.22947 -6.69884
LeftLeg  12.6803 5.2398 -0.114057
LeftFoot  -20.0033 0.585021 6.15227
LeftToes  2.27646e-009 -8.13696e-011 -1.44715e-011
1060
root  -25.8662 38.3978 -4.1412 172.529 -79.4418 179.895
RightUpLeg  -17.7711 5.32789 3.69258
RightLeg  22.2723 0.708571 0.126612
RightFoot  1.58499 0.398957 -3.44981
RightToes  -1.74624e-010 0 -3.6325e-017
Spine  4.23183 -8.28249 -4.60019
Spine1  3.56361 -8.66216 -0.119425
HEad  -11.5954 -49.5919 3.64156
LeftShoulder1  0.380872 2.33265 -26.3282
LeftArm  -0.792165 5.64017 -42.3071
LeftForeArm  36.5251 -36.9032 -6.21112
LeftHand  -0.0326211 4.6611 1.23982
RightShoulder  0.180952 -7.87965 -14.2625
RightArm  -51.0313 12.0302 -18.5262
RightForeArm  82.9539 79.8158 67.5817
RightHand  -1.57817 11.2455 -11.3741
LeftUpLeg  16.4837 13.1981 -3.6293
LeftLeg  18.484 -0.0956712 0.00161113
LeftFoot  -20.6181 0.445815 3.97541
LeftToes  2.27646e-009 -8.13696e-011 -1.44715e-011
1061
root  -27.0344 38.4032 -4.21516 165.813 -80.8333 -173.211
RightUpLeg  -17.0113 4.88512 4.58699
RightLeg  24.6518 -0.439397 -0.44584
RightFoot  -1.01629 0.394505 -4.43542
RightToes  -1.74624e-010 0 -3.6325e-017
Spine  4.53536 -8.76362 -3.76156
Spine1  3.46198 -9.17652 1.28713
HEad  -11.3018 -49.3671 3.7749
LeftShoulder1  0.334526 2.48847 -26.7571
LeftArm  -1.08567 8.06233 -40.4481
LeftForeArm  36.0651 -36.8667 -6.22857
LeftHand  -0.0302276 4.87649 0.801745
RightShoulder  0.177303 -7.70892 -14.3436
RightArm  -52.4647 9.38986 -17.811
RightForeArm  53.6502 74.5451 37.2759
RightHand  -1.37791 9.48377 -11.0888
LeftUpLeg  14.4947 13.4234 -1.25835
LeftLeg  26.206 -3.57532 -1.6131
LeftFoot  -18.711 0.0786207 -0.65501
LeftToes  2.27646e-009 -8.13696e-011 -1.44715e-011
1062
root  -28.0913 38.4212 -4.31285 154.494 -82.5246 -161.051
RightUpLeg  -16.5143 3.38271 5.70235
RightLeg  25.8765 -1.23693 -0.883202
RightFoot  -3.37833 0.31989 -4.90455
RightToes  -1.74624e-010 0 -3.6325e-017
Spine  4.9965 -9.11675 -1.75961
Spine1  2.24136 -9.13252 1.51106
HEad  -9.86933 -49.9799 3.30408
LeftShoulder1  0.323287 2.52079 -26.7041
LeftArm  -0.701491 9.81437 -38.8252
LeftForeArm  35.552 -36.2661 -6.0983
LeftHand  -0.0293764 5.09626 1.12272
RightShoulder  0.195145 -8.42112 -14.0671
RightArm  -54.3079 7.63442 -16.5481
RightForeArm  33.6765 62.851 18.9472
RightHand  -1.38936 10.2327 -10.6739
LeftUpLeg  9.37166 13.483 1.94802
LeftLeg  37.3096 -6.96874 -5.28093
LeftFoot  -12.9692 0.0148898 -5.69342
LeftToes  2.27646e-009 -8.13696e-011 -1.44715e-011
1063
root  -29.0623 38.4514 -4.35512 139.75 -83.3712 -145.292
RightUpLeg  -15.9835 0.645583 6.76885
RightLeg  26.2619 -0.307333 -0.404495
RightFoot  -5.42017 0.209443 -4.73751
RightToes  -1.74624e-010 0 -3.6325e-017
Spine  5.36687 -9.0537 1.07301
Spine1  1.15839 -8.56521 0.657841
HEad  -10.7386 -50.6944 3.66187
LeftShoulder1  0.324497 2.52182 -26.8601
LeftArm  -1.4203 11.1367 -37.1531
LeftForeArm  35.3609 -36.6001 -6.19891
LeftHand  -0.0290214 5.13886 2.19325
RightShoulder  0.206891 -9.30191 -13.6361
RightArm  -59.2025 6.87745 -15.7567
RightForeArm  25.4653 47.778 10.4417
RightHand  -1.30198 10.5197 -9.83905
LeftUpLeg  2.57253 12.2917 4.12642
LeftLeg  48.3238 -7.09017 -8.00127
LeftFoot  -2.65638 0.724097 -9.38895
LeftToes  2.27646e-009 -8.13696e-011 -1.44715e-011
1064
root  -29.9887 38.4852 -4.41084 129.134 -83.5777 -134.78
RightUpLeg  -14.3383 -0.672802 7.39493
RightLeg  26.6206 -0.151353 -0.325141
RightFoot  -7.43941 0.0988388 -4.39324
RightToes  -1.74624e-010 0 -3.6325e-017
Spine  6.82188 -8.9314 2.53873
Spine1  0.314616 -8.06794 0.235682
HEad  -11.5144 -50.4631 4.13154
LeftShoulder1  0.287964 2.62187 -26.4773
LeftArm  -4.0789 13.2717 -36.1665
LeftForeArm  36.3504 -37.5559 -6.39639
LeftHand  -0.0398055 4.30849 1.62108
RightShoulder  0.132894 -9.25884 -12.2079
RightArm  -69.9426 7.94551 -15.7663
RightForeArm  22.2301 32.4329 5.85382
RightHand  -1.11559 10.7049 -8.43956
LeftUpLeg  -3.07582 11.3149 5.61232
LeftLeg  57.0212 -5.77289 -8.97719
LeftFoot  7.68015 1.64448 -10.17
LeftToes  2.27646e-009 -8.13696e-011 -1.44715e-011
1065
root  -30.9271 38.5797 -4.45734 125.545 -83.8398 -131.344
RightUpLeg  -12.5124 -1.51171 7.30978
RightLeg  26.6851 0.109898 -0.215306
RightFoot  -9.12715 0.0210778 -4.26593
RightToes  -1.74624e-010 0 -3.6325e-017
Spine  7.60796 -8.70508 3.15481
Spine1  -0.0807536 -7.54525 -0.069269
HEad  -11.5807 -50.1895 3.99112
LeftShoulder1  0.231226 2.80845 -27.0696
LeftArm  -5.16 14.6941 -34.1776
LeftForeArm  34.7628 -37.7306 -6.53766
LeftHand  -0.0527906 4.25956 3.01274
RightShoulder  0.128564 -9.16164 -12.1738
RightArm  -82.4939 8.82646 -13.6596
RightForeArm  17.6948 22.8303 3.33908
RightHand  -1.31075 13.0819 -8.623
LeftUpLeg  -7.58326 11.1743 6.42707
LeftLeg  62.3097 -4.3238 -8.31561
LeftFoot  7.94392 1.4674 -8.87168
LeftToes  2.27646e-009 -8.13696e-011 -1.44715e-011
1066
root  -31.9614 38.8317 -4.46441 133.768 -84.0968 -139.341
RightUpLeg  -10.2517 -1.92706 6.31344
RightLeg  25.2975 1.10731 0.174316
RightFoot  -10.2947 -0.0345712 -3.80178
RightToes  -1.74624e-010 0 -3.6325e-017
Spine  7.74383 -8.05227 2.5727
Spine1  -0.903204 -6.94673 -0.0435699
HEad  -10.9172 -50.423 3.10787
LeftShoulder1  0.224221 2.83632 -27.4206
LeftArm  -6.99395 16.7032 -32.9725
LeftForeArm  34.9311 -37.861 -6.56409
LeftHand  -0.0261516 5.44498 1.24081
RightShoulder  0.0985854 -9.57067 -11.4323
RightArm  -85.7828 10.3556 -11.7044
RightForeArm  12.3584 20.9896 1.55932
RightHand  -1.38997 12.8255 -9.23979
LeftUpLeg  -11.7488 11.3545 5.99408
LeftLeg  64.1639 -3.35287 -6.91629
LeftFoot  5.10265 0.949537 -6.79125
LeftToes  2.27646e-009 -8.13696e-011 -1.44715e-011
